<?xml version="1.0" encoding="UTF-8"?>
<svg id="SVG" xmlns="http://www.w3.org/2000/svg" viewBox="0 0 1188.51 808.1">
  <defs>
    <style>
      .cls-1 {
        stroke-width: .63px;
      }

      .cls-1, .cls-2, .cls-3 {
        stroke: #8b929a;
      }

      .cls-1, .cls-3 {
        fill: none;
      }

      .cls-2 {
        fill: #0d131b;
      }

      .cls-2, .cls-3 {
        stroke-width: .58px;
      }

      .cls-4 {
        fill-rule: evenodd;
      }

      .cls-4, .cls-5 {
        fill: #8b929a;
      }
    </style>
  </defs>
  <g id="SteamPad">
    <path id="Left_Bumper" data-name="Left Bumper" class="cls-2" d="M325.35,15.08V6.21c0-3.27-2.65-5.92-5.92-5.92h-105.24c-28.09,0-110.4,43.71-116.97,84.93,15.76-34.3,54.7-58.41,101.98-63.97l126.15-6.17Z"/>
    <path id="Right_Bumper" data-name="Right Bumper" class="cls-2" d="M862.08,17.5v-8.88c0-3.27,2.65-5.92,5.92-5.92h105.24c28.09,0,110.4,43.71,116.97,84.93-15.76-34.3-54.7-58.41-101.98-63.97l-126.15-6.17Z"/>
    <path id="Controller_Shape" data-name="Controller Shape" class="cls-2" d="M594.57,669.77s54.35-1.5,100.39.11c52.61,1.85,69.22,12.92,84.91,18.46,39.51,13.95,79.38,53.53,112.6,72.91,72.31,42.18,163.41,60.15,216.9,35.07,59.07-27.69,73.99-88.78,77.53-127.37,10.15-110.76-40.61-265.82-77.21-457.33-3.31-17.35-1.82-51.23-2.17-70.61-.46-25.86-15.17-56.98-31.38-76.61-35.07-42.46-76.34-46.61-134.45-49.84-85.66-4.77-347.34-1.85-347.34-1.85l-.19-.21s-261.68-2.92-347.34,1.85c-58.12,3.24-99.38,7.38-134.45,49.84-16.22,19.63-30.92,50.75-31.38,76.61-.35,19.38,1.14,53.26-2.17,70.61C42.22,402.94-8.55,558,1.61,668.75c3.54,38.59,18.46,99.68,77.53,127.37,53.49,25.07,144.59,7.11,216.9-35.07,33.23-19.38,73.09-58.97,112.6-72.91,15.69-5.54,32.3-16.61,84.91-18.46,46.04-1.62,100.39-.11,100.39-.11l.63.21Z"/>
    <g id="Right_Analog_Stick" data-name="Right Analog Stick">
      <path class="cls-3" d="M849.78,166.42c0,33.15-26.88,60.02-60.04,60.02s-60.04-26.87-60.04-60.02,26.88-60.02,60.04-60.02,60.04,26.87,60.04,60.02Z"/>
      <path class="cls-3" d="M833.1,166.42c0,23.94-19.41,43.34-43.36,43.34s-43.35-19.41-43.35-43.34,19.41-43.34,43.35-43.34,43.36,19.41,43.36,43.34Z"/>
    </g>
    <g id="Left_Analog_Stick" data-name="Left Analog Stick">
      <path class="cls-3" d="M458.6,166.21c0,33.15-26.88,60.02-60.04,60.02s-60.04-26.87-60.04-60.02,26.88-60.02,60.04-60.02,60.04,26.87,60.04,60.02Z"/>
      <path class="cls-3" d="M441.91,166.21c0,23.94-19.41,43.34-43.36,43.34s-43.35-19.41-43.35-43.34,19.41-43.34,43.35-43.34,43.36,19.41,43.36,43.34Z"/>
    </g>
    <path id="Dpad" class="cls-3" d="M213.15,211.37c0,1.05-.85,1.89-1.89,1.89h-33.62c-1.05,0-1.89-.85-1.89-1.89v-34.14c0-7.94-6.44-14.38-14.38-14.38h-34.15c-1.05,0-1.89-.85-1.89-1.89v-33.61c0-1.05.85-1.89,1.89-1.89h34.15c7.94,0,14.38-6.44,14.38-14.38v-34.14c0-1.05.85-1.89,1.89-1.89h33.62c1.05,0,1.89.85,1.89,1.89v34.14c0,7.94,6.44,14.38,14.38,14.38h34.15c1.05,0,1.89.85,1.89,1.89v33.61c0,1.05-.85,1.89-1.89,1.89h-34.15c-7.94,0-14.38,6.44-14.38,14.38v34.14Z"/>
    <g id="Steam_Button" data-name="Steam Button">
      <path id="Text" class="cls-5" d="M406.45,568.25c.84,0,1.61.12,2.31.35.71.24,1.3.52,1.78.87l-1.09,1.94c-.44-.31-.92-.55-1.46-.74-.53-.19-1.04-.28-1.52-.28-.59,0-1.05.12-1.38.37-.33.24-.49.57-.49.99s.19.76.58,1c.39.24.98.5,1.78.78.82.29,1.48.57,1.98.81.49.25.92.61,1.29,1.09.38.47.56,1.08.56,1.82,0,.79-.21,1.47-.62,2.05-.4.58-.96,1.02-1.69,1.34-.73.31-1.56.46-2.51.46-.76,0-1.55-.1-2.35-.3-.79-.21-1.48-.5-2.08-.85l.81-2.15c.56.31,1.16.55,1.78.74.64.18,1.26.26,1.87.26.67,0,1.17-.13,1.5-.39.34-.26.51-.6.51-1.03s-.18-.75-.55-.99c-.36-.24-.92-.48-1.68-.72-.85-.27-1.53-.53-2.05-.77-.52-.26-.96-.63-1.34-1.11-.37-.5-.55-1.14-.55-1.92,0-.73.19-1.36.56-1.91.39-.55.93-.97,1.62-1.27.69-.29,1.49-.44,2.4-.44ZM419.64,580.89h-2.59v-10.13h-3.74v-2.22h10.08v2.22h-3.74v10.13ZM426.57,568.53h8.33v2.21h-5.74v2.79h4.94v2.22h-4.94v2.89h5.74v2.24h-8.33v-12.36ZM449.65,580.89h-2.81l-.85-2.4h-4.84l-.81,2.4h-2.7l4.62-12.36h2.61l4.77,12.36ZM443.56,571.48l-1.69,4.94h3.42l-1.73-4.94ZM459.45,577.3l3.85-8.77h2.63v12.36h-2.49v-7.86l-3.32,7.5h-1.57l-3.39-7.42v7.77h-2.37v-12.36h2.49l4.17,8.77Z"/>
      <path id="Outline" class="cls-3" d="M466.2,552.32h-66.03c-12.01,0-21.75,9.74-21.75,21.75h0c0,12.01,9.74,21.75,21.75,21.75h66.03c12.01,0,21.75-9.74,21.75-21.75h0c0-12.01-9.74-21.75-21.75-21.75Z"/>
    </g>
    <g id="Aux_Button" data-name="Aux Button">
      <path id="Outline-2" data-name="Outline" class="cls-3" d="M788.17,552.32h-66.03c-12.01,0-21.75,9.74-21.75,21.75h0c0,12.01,9.74,21.75,21.75,21.75h66.03c12.01,0,21.75-9.74,21.75-21.75h0c0-12.01-9.74-21.75-21.75-21.75Z"/>
      <path id="Left_Dot" data-name="Left Dot" class="cls-5" d="M735.35,579.84c3.19,0,5.77-2.58,5.77-5.77s-2.58-5.77-5.77-5.77-5.77,2.59-5.77,5.77,2.59,5.77,5.77,5.77Z"/>
      <path id="Middle_Dot" data-name="Middle Dot" class="cls-5" d="M755.15,579.84c3.19,0,5.77-2.58,5.77-5.77s-2.58-5.77-5.77-5.77-5.77,2.59-5.77,5.77,2.58,5.77,5.77,5.77Z"/>
      <path id="Right_Dot" data-name="Right Dot" class="cls-5" d="M774.95,579.84c3.19,0,5.77-2.58,5.77-5.77s-2.58-5.77-5.77-5.77-5.77,2.59-5.77,5.77,2.59,5.77,5.77,5.77Z"/>
    </g>
    <g id="Action_Buttons" data-name="Action Buttons">
      <g id="Y">
        <path id="Outline-3" data-name="Outline" class="cls-3" d="M1009.31,85.79c0,16.27-13.27,29.47-29.65,29.47s-29.66-13.2-29.66-29.47,13.27-29.47,29.66-29.47,29.65,13.2,29.65,29.47Z"/>
        <path id="Label" class="cls-5" d="M982.29,97.56h-5.11v-9.77l-8.55-14.74h5.96l5.32,9.8,5.36-9.8h5.57l-8.54,14.78v9.74Z"/>
      </g>
      <g id="X">
        <path id="Outline-4" data-name="Outline" class="cls-3" d="M956.47,143.53c0,16.27-13.27,29.47-29.66,29.47s-29.66-13.2-29.66-29.47,13.27-29.47,29.66-29.47,29.66,13.2,29.66,29.47Z"/>
        <path id="Label-2" data-name="Label" class="cls-5" d="M931.56,132.53h6.52l-8.61,11.66,9.39,12.85h-6.31l-5.74-8.93-5.5,8.93h-6.16l8.72-12.68-8.37-11.84h6.34l4.87,7.88,4.86-7.88Z"/>
      </g>
      <g id="B">
        <path id="Outline-5" data-name="Outline" class="cls-3" d="M1063.01,141.34c0,16.27-13.27,29.47-29.66,29.47s-29.65-13.2-29.65-29.47,13.27-29.47,29.65-29.47,29.66,13.2,29.66,29.47Z"/>
        <path id="Label-3" data-name="Label" class="cls-5" d="M1040.2,141.8c3.13.96,4.69,2.96,4.69,6.02,0,2.22-.81,3.95-2.42,5.18-1.61,1.24-3.77,1.86-6.48,1.86h-10.05v-24.51h9.07c2.87,0,5,.54,6.37,1.61,1.38,1.07,2.07,2.59,2.07,4.55,0,1.1-.25,2.1-.77,3.01-.51.91-1.34,1.67-2.48,2.28ZM1031.16,134.62v5.99h3.54c1.16,0,2.07-.27,2.69-.81.63-.56.95-1.34.95-2.35,0-1.89-1.25-2.84-3.75-2.84h-3.43ZM1035.47,150.62c1.31,0,2.29-.29,2.94-.88.68-.58,1.02-1.35,1.02-2.31,0-1.03-.33-1.8-.98-2.31-.66-.54-1.6-.81-2.84-.81h-4.45v6.3h4.31Z"/>
      </g>
      <g id="A">
        <path id="Outline-6" data-name="Outline" class="cls-1" d="M1009.24,197.48c0,16.19-13.2,29.32-29.51,29.32s-29.51-13.14-29.51-29.32,13.2-29.32,29.51-29.32,29.51,13.14,29.51,29.32Z"/>
        <path id="Label-4" data-name="Label" class="cls-5" d="M991.88,208.27h-5.57l-1.68-4.76h-9.6l-1.61,4.76h-5.36l9.18-24.51h5.18l9.45,24.51ZM979.8,189.61l-3.36,9.8h6.8l-3.43-9.8Z"/>
      </g>
    </g>
    <g id="Menu_Button" data-name="Menu Button">
      <path class="cls-1" d="M885.4,42.98h-32.76c-7.5,0-13.58,6.08-13.58,13.58v.3c0,7.5,6.08,13.58,13.58,13.58h32.76c7.5,0,13.58-6.08,13.58-13.58v-.3c0-7.5-6.08-13.58-13.58-13.58Z"/>
      <path class="cls-5" d="M861.57,50.28h15.16v2.74h-15.16v-2.74Z"/>
      <path class="cls-5" d="M861.57,55.76h15.16v2.74h-15.16v-2.74Z"/>
      <path class="cls-5" d="M861.57,61.24h15.16v2.74h-15.16v-2.74Z"/>
    </g>
    <g id="View_Button" data-name="View Button">
      <path class="cls-1" d="M326.86,44.03h-32.76c-7.5,0-13.58,6.08-13.58,13.58v.3c0,7.5,6.08,13.58,13.58,13.58h32.76c7.5,0,13.58-6.08,13.58-13.58v-.3c0-7.5-6.08-13.58-13.58-13.58Z"/>
      <path id="View" class="cls-4" d="M312.63,52.43h-13.58v9.05h7.41v-2.26h-4.94v-4.53h11.11v-2.26ZM321.28,56.95h-12.35v6.79h12.35v-6.79Z"/>
    </g>
    <path id="Right_Trackpad" data-name="Right Trackpad" class="cls-3" d="M887.86,293.18h-157.73c-16.23,0-29.38,13.15-29.38,29.38v157.66c0,16.23,13.15,29.38,29.38,29.38h157.73c16.23,0,29.38-13.15,29.38-29.38v-157.66c0-16.23-13.15-29.38-29.38-29.38Z"/>
    <path id="Left_Trackpad" data-name="Left Trackpad" class="cls-3" d="M458.21,293.18h-157.73c-16.23,0-29.38,13.15-29.38,29.38v157.66c0,16.23,13.15,29.38,29.38,29.38h157.73c16.23,0,29.38-13.15,29.38-29.38v-157.66c0-16.23-13.15-29.38-29.38-29.38Z"/>
    <line id="Centre_Seperation_Line" data-name="Centre Seperation Line" class="cls-3" x1="594.16" y1="26.36" x2="594.16" y2="649.37"/>
  </g>
</svg>