%TF.GenerationSoftware,KiCad,Pcbnew,9.0.0*%
%TF.CreationDate,2025-06-21T10:21:25-05:00*%
%TF.ProjectId,SDC_USB_Breakout,5344435f-5553-4425-9f42-7265616b6f75,rev?*%
%TF.SameCoordinates,Original*%
%TF.FileFunction,Legend,Top*%
%TF.FilePolarity,Positive*%
%FSLAX46Y46*%
G04 Gerber Fmt 4.6, Leading zero omitted, Abs format (unit mm)*
G04 Created by KiCad (PCBNEW 9.0.0) date 2025-06-21 10:21:25*
%MOMM*%
%LPD*%
G01*
G04 APERTURE LIST*
%ADD10C,0.150000*%
%ADD11C,0.120000*%
G04 APERTURE END LIST*
D10*
X114383333Y-41090505D02*
X114050000Y-40614314D01*
X113811905Y-41090505D02*
X113811905Y-40090505D01*
X113811905Y-40090505D02*
X114192857Y-40090505D01*
X114192857Y-40090505D02*
X114288095Y-40138124D01*
X114288095Y-40138124D02*
X114335714Y-40185743D01*
X114335714Y-40185743D02*
X114383333Y-40280981D01*
X114383333Y-40280981D02*
X114383333Y-40423838D01*
X114383333Y-40423838D02*
X114335714Y-40519076D01*
X114335714Y-40519076D02*
X114288095Y-40566695D01*
X114288095Y-40566695D02*
X114192857Y-40614314D01*
X114192857Y-40614314D02*
X113811905Y-40614314D01*
X115335714Y-41090505D02*
X114764286Y-41090505D01*
X115050000Y-41090505D02*
X115050000Y-40090505D01*
X115050000Y-40090505D02*
X114954762Y-40233362D01*
X114954762Y-40233362D02*
X114859524Y-40328600D01*
X114859524Y-40328600D02*
X114764286Y-40376219D01*
X110966666Y-43704819D02*
X110966666Y-44419104D01*
X110966666Y-44419104D02*
X110919047Y-44561961D01*
X110919047Y-44561961D02*
X110823809Y-44657200D01*
X110823809Y-44657200D02*
X110680952Y-44704819D01*
X110680952Y-44704819D02*
X110585714Y-44704819D01*
X111966666Y-44704819D02*
X111395238Y-44704819D01*
X111680952Y-44704819D02*
X111680952Y-43704819D01*
X111680952Y-43704819D02*
X111585714Y-43847676D01*
X111585714Y-43847676D02*
X111490476Y-43942914D01*
X111490476Y-43942914D02*
X111395238Y-43990533D01*
X111633333Y-40610866D02*
X111633333Y-39896581D01*
X111633333Y-39896581D02*
X111680952Y-39753724D01*
X111680952Y-39753724D02*
X111776190Y-39658486D01*
X111776190Y-39658486D02*
X111919047Y-39610866D01*
X111919047Y-39610866D02*
X112014285Y-39610866D01*
X111204761Y-40515628D02*
X111157142Y-40563247D01*
X111157142Y-40563247D02*
X111061904Y-40610866D01*
X111061904Y-40610866D02*
X110823809Y-40610866D01*
X110823809Y-40610866D02*
X110728571Y-40563247D01*
X110728571Y-40563247D02*
X110680952Y-40515628D01*
X110680952Y-40515628D02*
X110633333Y-40420390D01*
X110633333Y-40420390D02*
X110633333Y-40325152D01*
X110633333Y-40325152D02*
X110680952Y-40182295D01*
X110680952Y-40182295D02*
X111252380Y-39610866D01*
X111252380Y-39610866D02*
X110633333Y-39610866D01*
X105933333Y-43884819D02*
X105600000Y-43408628D01*
X105361905Y-43884819D02*
X105361905Y-42884819D01*
X105361905Y-42884819D02*
X105742857Y-42884819D01*
X105742857Y-42884819D02*
X105838095Y-42932438D01*
X105838095Y-42932438D02*
X105885714Y-42980057D01*
X105885714Y-42980057D02*
X105933333Y-43075295D01*
X105933333Y-43075295D02*
X105933333Y-43218152D01*
X105933333Y-43218152D02*
X105885714Y-43313390D01*
X105885714Y-43313390D02*
X105838095Y-43361009D01*
X105838095Y-43361009D02*
X105742857Y-43408628D01*
X105742857Y-43408628D02*
X105361905Y-43408628D01*
X106314286Y-42980057D02*
X106361905Y-42932438D01*
X106361905Y-42932438D02*
X106457143Y-42884819D01*
X106457143Y-42884819D02*
X106695238Y-42884819D01*
X106695238Y-42884819D02*
X106790476Y-42932438D01*
X106790476Y-42932438D02*
X106838095Y-42980057D01*
X106838095Y-42980057D02*
X106885714Y-43075295D01*
X106885714Y-43075295D02*
X106885714Y-43170533D01*
X106885714Y-43170533D02*
X106838095Y-43313390D01*
X106838095Y-43313390D02*
X106266667Y-43884819D01*
X106266667Y-43884819D02*
X106885714Y-43884819D01*
D11*
%TO.C,R1*%
X114312742Y-41543186D02*
X114787258Y-41543186D01*
X114312742Y-42588186D02*
X114787258Y-42588186D01*
%TO.C,J1*%
X107650000Y-46650000D02*
X107650000Y-47990000D01*
X107650000Y-50710000D02*
X107650000Y-52450000D01*
X107650000Y-52450000D02*
X114950000Y-52450000D01*
X109140000Y-46650000D02*
X107650000Y-46650000D01*
X109140000Y-46650000D02*
X109140000Y-45450000D01*
X113460000Y-46650000D02*
X114950000Y-46650000D01*
X114950000Y-46650000D02*
X114950000Y-47990000D01*
X114950000Y-52450000D02*
X114950000Y-50710000D01*
%TO.C,J2*%
X106630000Y-34665686D02*
X106630000Y-36365686D01*
X115970000Y-34665686D02*
X115970000Y-36365686D01*
%TO.C,R2*%
X106337258Y-41477500D02*
X105862742Y-41477500D01*
X106337258Y-42522500D02*
X105862742Y-42522500D01*
%TD*%
M02*
