%TF.GenerationSoftware,KiCad,Pcbnew,9.0.0*%
%TF.CreationDate,2025-06-21T10:21:25-05:00*%
%TF.ProjectId,SDC_USB_Breakout,5344435f-5553-4425-9f42-7265616b6f75,rev?*%
%TF.SameCoordinates,Original*%
%TF.FileFunction,Copper,L1,Top*%
%TF.FilePolarity,Positive*%
%FSLAX46Y46*%
G04 Gerber Fmt 4.6, Leading zero omitted, Abs format (unit mm)*
G04 Created by KiCad (PCBNEW 9.0.0) date 2025-06-21 10:21:25*
%MOMM*%
%LPD*%
G01*
G04 APERTURE LIST*
G04 Aperture macros list*
%AMRoundRect*
0 Rectangle with rounded corners*
0 $1 Rounding radius*
0 $2 $3 $4 $5 $6 $7 $8 $9 X,Y pos of 4 corners*
0 Add a 4 corners polygon primitive as box body*
4,1,4,$2,$3,$4,$5,$6,$7,$8,$9,$2,$3,0*
0 Add four circle primitives for the rounded corners*
1,1,$1+$1,$2,$3*
1,1,$1+$1,$4,$5*
1,1,$1+$1,$6,$7*
1,1,$1+$1,$8,$9*
0 Add four rect primitives between the rounded corners*
20,1,$1+$1,$2,$3,$4,$5,0*
20,1,$1+$1,$4,$5,$6,$7,0*
20,1,$1+$1,$6,$7,$8,$9,0*
20,1,$1+$1,$8,$9,$2,$3,0*%
G04 Aperture macros list end*
%TA.AperFunction,Conductor*%
%ADD10C,0.200000*%
%TD*%
%TA.AperFunction,SMDPad,CuDef*%
%ADD11RoundRect,0.200000X-0.200000X-0.275000X0.200000X-0.275000X0.200000X0.275000X-0.200000X0.275000X0*%
%TD*%
%TA.AperFunction,SMDPad,CuDef*%
%ADD12R,0.300000X1.300000*%
%TD*%
%TA.AperFunction,SMDPad,CuDef*%
%ADD13R,1.800000X2.200000*%
%TD*%
%TA.AperFunction,SMDPad,CuDef*%
%ADD14RoundRect,0.150000X0.150000X0.425000X-0.150000X0.425000X-0.150000X-0.425000X0.150000X-0.425000X0*%
%TD*%
%TA.AperFunction,SMDPad,CuDef*%
%ADD15RoundRect,0.075000X0.075000X0.500000X-0.075000X0.500000X-0.075000X-0.500000X0.075000X-0.500000X0*%
%TD*%
%TA.AperFunction,ComponentPad*%
%ADD16O,1.000000X2.100000*%
%TD*%
%TA.AperFunction,ComponentPad*%
%ADD17O,1.000000X1.800000*%
%TD*%
%TA.AperFunction,SMDPad,CuDef*%
%ADD18RoundRect,0.200000X0.200000X0.275000X-0.200000X0.275000X-0.200000X-0.275000X0.200000X-0.275000X0*%
%TD*%
%TA.AperFunction,ViaPad*%
%ADD19C,0.600000*%
%TD*%
%TA.AperFunction,Conductor*%
%ADD20C,0.500000*%
%TD*%
G04 APERTURE END LIST*
%TO.N,GND*%
D10*
X114300000Y-37815685D02*
X114800000Y-37815685D01*
X114800000Y-39815686D01*
X114300000Y-39815686D01*
X114300000Y-37815685D01*
%TA.AperFunction,Conductor*%
G36*
X114300000Y-37815685D02*
G01*
X114800000Y-37815685D01*
X114800000Y-39815686D01*
X114300000Y-39815686D01*
X114300000Y-37815685D01*
G37*
%TD.AperFunction*%
X107800000Y-37815685D02*
X108300000Y-37815685D01*
X108300000Y-39565685D01*
X107800000Y-39565685D01*
X107800000Y-37815685D01*
%TA.AperFunction,Conductor*%
G36*
X107800000Y-37815685D02*
G01*
X108300000Y-37815685D01*
X108300000Y-39565685D01*
X107800000Y-39565685D01*
X107800000Y-37815685D01*
G37*
%TD.AperFunction*%
%TD*%
D11*
%TO.P,R1,1*%
%TO.N,Net-(J2-CC1)*%
X113725000Y-42065686D03*
%TO.P,R1,2*%
%TO.N,GND*%
X115375000Y-42065686D03*
%TD*%
D12*
%TO.P,J1,1,Pin_1*%
%TO.N,VCC*%
X109550001Y-46100000D03*
%TO.P,J1,2,Pin_2*%
X110050000Y-46100000D03*
%TO.P,J1,3,Pin_3*%
%TO.N,GND*%
X110549999Y-46100000D03*
%TO.P,J1,4,Pin_4*%
%TO.N,Net-(J1-Pin_4)*%
X111050000Y-46100000D03*
%TO.P,J1,5,Pin_5*%
%TO.N,Net-(J1-Pin_5)*%
X111550000Y-46100000D03*
%TO.P,J1,6,Pin_6*%
%TO.N,GND*%
X112050001Y-46100000D03*
%TO.P,J1,7,Pin_7*%
X112550000Y-46100000D03*
%TO.P,J1,8,Pin_8*%
%TO.N,unconnected-(J1-Pin_8-Pad8)*%
X113049999Y-46100000D03*
D13*
%TO.P,J1,MP*%
%TO.N,GND*%
X107650000Y-49350000D03*
X114950000Y-49350000D03*
%TD*%
D14*
%TO.P,J2,A1,GND*%
%TO.N,GND*%
X114500000Y-38245686D03*
%TO.P,J2,A4,VBUS*%
%TO.N,VCC*%
X113700000Y-38245686D03*
D15*
%TO.P,J2,A5,CC1*%
%TO.N,Net-(J2-CC1)*%
X112550000Y-38245685D03*
%TO.P,J2,A6,D+*%
%TO.N,Net-(J1-Pin_5)*%
X111550000Y-38245686D03*
%TO.P,J2,A7,D-*%
%TO.N,Net-(J1-Pin_4)*%
X111050000Y-38245686D03*
%TO.P,J2,A8*%
%TO.N,N/C*%
X110050000Y-38245685D03*
D14*
%TO.P,J2,A9,VBUS*%
%TO.N,VCC*%
X108900000Y-38245686D03*
%TO.P,J2,A12,GND*%
%TO.N,GND*%
X108100000Y-38245686D03*
%TO.P,J2,B1,GND*%
X108100000Y-38245686D03*
%TO.P,J2,B4,VBUS*%
%TO.N,VCC*%
X108900000Y-38245686D03*
D15*
%TO.P,J2,B5,CC2*%
%TO.N,Net-(J2-CC2)*%
X109550000Y-38245686D03*
%TO.P,J2,B6,D+*%
%TO.N,Net-(J1-Pin_5)*%
X110550000Y-38245686D03*
%TO.P,J2,B7,D-*%
%TO.N,Net-(J1-Pin_4)*%
X112050000Y-38245686D03*
%TO.P,J2,B8*%
%TO.N,N/C*%
X113050000Y-38245686D03*
D14*
%TO.P,J2,B9,VBUS*%
%TO.N,VCC*%
X113700000Y-38245686D03*
%TO.P,J2,B12,GND*%
%TO.N,GND*%
X114500000Y-38245686D03*
D16*
%TO.P,J2,S1,SHIELD*%
X115620000Y-37670686D03*
D17*
X115620000Y-33490686D03*
D16*
X106980000Y-37670686D03*
D17*
X106980000Y-33490686D03*
%TD*%
D18*
%TO.P,R2,1*%
%TO.N,Net-(J2-CC2)*%
X106925000Y-42000000D03*
%TO.P,R2,2*%
%TO.N,GND*%
X105275000Y-42000000D03*
%TD*%
D19*
%TO.N,Net-(J2-CC2)*%
X109700000Y-39300000D03*
X107300000Y-40315686D03*
%TO.N,GND*%
X109300000Y-43500000D03*
X109300000Y-41600000D03*
X113300000Y-44465685D03*
%TO.N,Net-(J1-Pin_4)*%
X112029603Y-37277746D03*
X110950001Y-40065685D03*
%TD*%
D10*
%TO.N,Net-(J2-CC2)*%
X107000000Y-41965685D02*
X106900000Y-42065685D01*
X107000000Y-40615686D02*
X107000000Y-41965685D01*
X107300000Y-40315686D02*
X107000000Y-40615686D01*
X109550000Y-39150000D02*
X109550000Y-38245686D01*
X109700000Y-39300000D02*
X109550000Y-39150000D01*
%TO.N,Net-(J2-CC1)*%
X112550000Y-38245685D02*
X112550000Y-39150000D01*
X113724999Y-40324999D02*
X113724999Y-42065685D01*
X112550000Y-39150000D02*
X113724999Y-40324999D01*
%TO.N,GND*%
X114500000Y-39515686D02*
X114550000Y-39565686D01*
X108100000Y-38245685D02*
X108100000Y-39515686D01*
X114500000Y-38245685D02*
X114500000Y-39515686D01*
X108100000Y-39515686D02*
X108050000Y-39565686D01*
%TO.N,Net-(J1-Pin_4)*%
X112029603Y-37277746D02*
X112050000Y-37298143D01*
X111050000Y-38245685D02*
X111050000Y-46100000D01*
X112050000Y-37298143D02*
X112050000Y-38245686D01*
%TO.N,Net-(J1-Pin_5)*%
X110550000Y-38245686D02*
X110550000Y-37638276D01*
X111227410Y-37315685D02*
X111550000Y-37638276D01*
X110872590Y-37315686D02*
X111227410Y-37315685D01*
X111550000Y-37638276D02*
X111550000Y-46100000D01*
X110550000Y-37638276D02*
X110872590Y-37315686D01*
D20*
%TO.N,VCC*%
X108500000Y-43900000D02*
X109550000Y-44950000D01*
X108900000Y-39743502D02*
X108500000Y-40143503D01*
X108500000Y-40143503D02*
X108500000Y-43900000D01*
X109550000Y-44950000D02*
X109550000Y-46200000D01*
X108900000Y-38245685D02*
X108900000Y-39743502D01*
%TD*%
%TA.AperFunction,Conductor*%
%TO.N,GND*%
G36*
X112800000Y-45275676D02*
G01*
X112755446Y-45305447D01*
X112711131Y-45371769D01*
X112711130Y-45371770D01*
X112699499Y-45430247D01*
X112699499Y-46769752D01*
X112711130Y-46828229D01*
X112711131Y-46828230D01*
X112755446Y-46894552D01*
X112800000Y-46924322D01*
X112800000Y-47000000D01*
X111800000Y-47000000D01*
X111800000Y-46924321D01*
X111844552Y-46894552D01*
X111888867Y-46828231D01*
X111888867Y-46828229D01*
X111888868Y-46828229D01*
X111900499Y-46769752D01*
X111900500Y-46769750D01*
X111900500Y-45781858D01*
X111901762Y-45764211D01*
X111905001Y-45741685D01*
X111905001Y-45430492D01*
X111905319Y-45421623D01*
X111905500Y-45419098D01*
X111905500Y-45200000D01*
X112800000Y-45200000D01*
X112800000Y-45275676D01*
G37*
%TD.AperFunction*%
%TD*%
%TA.AperFunction,Conductor*%
%TO.N,Net-(J1-Pin_5)*%
G36*
X111663428Y-38785370D02*
G01*
X111709183Y-38838174D01*
X111710950Y-38842231D01*
X111715484Y-38853178D01*
X111715485Y-38853181D01*
X111728085Y-38872038D01*
X111776375Y-38944310D01*
X111812876Y-38968699D01*
X111867505Y-39005201D01*
X111947867Y-39021186D01*
X111947871Y-39021185D01*
X111952562Y-39022119D01*
X112014473Y-39054504D01*
X112027592Y-39069365D01*
X112775226Y-40066944D01*
X112799679Y-40132394D01*
X112800000Y-40141308D01*
X112800000Y-43045146D01*
X112780315Y-43112185D01*
X112759411Y-43136899D01*
X111700000Y-44099999D01*
X111700000Y-45419094D01*
X111698865Y-45422956D01*
X111698944Y-45424161D01*
X111699501Y-45424161D01*
X111699501Y-45741685D01*
X111679816Y-45808724D01*
X111627012Y-45854479D01*
X111575501Y-45865685D01*
X111529000Y-45865685D01*
X111461961Y-45846000D01*
X111416206Y-45793196D01*
X111405000Y-45741685D01*
X111405000Y-45437343D01*
X111405149Y-45431267D01*
X111405170Y-45430832D01*
X111405252Y-45429167D01*
X111405500Y-45419084D01*
X111405500Y-40309834D01*
X111414938Y-40262383D01*
X111416389Y-40258877D01*
X111416393Y-40258871D01*
X111450501Y-40131577D01*
X111450501Y-39999793D01*
X111416393Y-39872499D01*
X111416391Y-39872496D01*
X111416391Y-39872494D01*
X111414935Y-39868978D01*
X111405500Y-39821535D01*
X111405500Y-38889685D01*
X111408050Y-38880999D01*
X111406762Y-38872038D01*
X111417740Y-38847997D01*
X111425185Y-38822646D01*
X111432025Y-38816718D01*
X111435787Y-38808482D01*
X111458021Y-38794192D01*
X111477989Y-38776891D01*
X111488503Y-38774603D01*
X111494565Y-38770708D01*
X111529497Y-38765685D01*
X111596390Y-38765685D01*
X111663428Y-38785370D01*
G37*
%TD.AperFunction*%
%TD*%
%TA.AperFunction,Conductor*%
%TO.N,Net-(J1-Pin_4)*%
G36*
X111143039Y-38785370D02*
G01*
X111188794Y-38838174D01*
X111200000Y-38889685D01*
X111200000Y-45419084D01*
X111199500Y-45429262D01*
X111199500Y-45741685D01*
X111196949Y-45750370D01*
X111198238Y-45759332D01*
X111187259Y-45783372D01*
X111179815Y-45808724D01*
X111172974Y-45814651D01*
X111169213Y-45822888D01*
X111146978Y-45837177D01*
X111127011Y-45854479D01*
X111116496Y-45856766D01*
X111110435Y-45860662D01*
X111075500Y-45865685D01*
X111024499Y-45865685D01*
X110957460Y-45846000D01*
X110911705Y-45793196D01*
X110900499Y-45741685D01*
X110900499Y-45429252D01*
X110900000Y-45419094D01*
X110900000Y-44065687D01*
X110900000Y-44065686D01*
X109845478Y-43202894D01*
X109806058Y-43145207D01*
X109800000Y-43106923D01*
X109800000Y-41667758D01*
X109800500Y-41665892D01*
X109800500Y-41534108D01*
X109800000Y-41532241D01*
X109800000Y-40141308D01*
X109819685Y-40074269D01*
X109824767Y-40066952D01*
X110572406Y-39069367D01*
X110628359Y-39027529D01*
X110647441Y-39022117D01*
X110652126Y-39021185D01*
X110652132Y-39021185D01*
X110732495Y-39005201D01*
X110823624Y-38944310D01*
X110884515Y-38853181D01*
X110884515Y-38853177D01*
X110889053Y-38842227D01*
X110901595Y-38826664D01*
X110909899Y-38808482D01*
X110923072Y-38800015D01*
X110932897Y-38787826D01*
X110951860Y-38781515D01*
X110968677Y-38770708D01*
X110996247Y-38766743D01*
X110999192Y-38765764D01*
X111003584Y-38765685D01*
X111076001Y-38765685D01*
X111143039Y-38785370D01*
G37*
%TD.AperFunction*%
%TD*%
%TA.AperFunction,Conductor*%
%TO.N,VCC*%
G36*
X109753766Y-44974709D02*
G01*
X109790547Y-45034113D01*
X109795000Y-45067044D01*
X109795000Y-45125500D01*
X109799696Y-45169183D01*
X109802649Y-45182759D01*
X109802757Y-45183261D01*
X109802751Y-45183328D01*
X109804524Y-45193642D01*
X109806137Y-45206360D01*
X109807555Y-45211506D01*
X109811539Y-45223299D01*
X109813388Y-45230865D01*
X109813390Y-45230871D01*
X109830252Y-45262518D01*
X109832526Y-45266787D01*
X109842740Y-45290173D01*
X109845181Y-45293478D01*
X109846306Y-45292646D01*
X109855089Y-45309129D01*
X109856394Y-45311579D01*
X109867827Y-45324773D01*
X109873853Y-45332301D01*
X109884248Y-45346374D01*
X109884251Y-45346378D01*
X109884253Y-45346380D01*
X109900403Y-45365654D01*
X109909022Y-45371397D01*
X109919748Y-45382345D01*
X109955262Y-45402209D01*
X109976510Y-45416368D01*
X109981162Y-45418137D01*
X109981162Y-45418136D01*
X109989203Y-45421194D01*
X109999567Y-45426991D01*
X110020943Y-45433267D01*
X110041802Y-45441201D01*
X110098879Y-45454003D01*
X110098885Y-45454003D01*
X110102637Y-45454845D01*
X110163743Y-45488724D01*
X110196832Y-45550262D01*
X110199499Y-45575839D01*
X110199499Y-46621000D01*
X110196948Y-46629685D01*
X110198237Y-46638647D01*
X110187258Y-46662687D01*
X110179814Y-46688039D01*
X110172973Y-46693966D01*
X110169212Y-46702203D01*
X110146977Y-46716492D01*
X110127010Y-46733794D01*
X110116495Y-46736081D01*
X110110434Y-46739977D01*
X110075499Y-46745000D01*
X109912701Y-46745000D01*
X109888510Y-46742617D01*
X109875238Y-46739977D01*
X109864295Y-46737800D01*
X109864285Y-46737798D01*
X109852828Y-46736669D01*
X109824192Y-46733849D01*
X109775809Y-46733849D01*
X109772267Y-46734197D01*
X109735734Y-46737794D01*
X109735726Y-46737795D01*
X109725188Y-46739891D01*
X109711474Y-46742618D01*
X109687292Y-46745000D01*
X109529001Y-46745000D01*
X109461962Y-46725315D01*
X109416207Y-46672511D01*
X109405001Y-46621000D01*
X109405001Y-46527140D01*
X109403600Y-46516503D01*
X109397998Y-46473951D01*
X109381384Y-46411950D01*
X109360854Y-46362387D01*
X109360848Y-46362377D01*
X109360846Y-46362372D01*
X109329860Y-46308706D01*
X109317470Y-46278797D01*
X109309223Y-46248017D01*
X109305000Y-46215929D01*
X109305000Y-45430044D01*
X109324685Y-45363005D01*
X109325826Y-45361261D01*
X109567826Y-44998261D01*
X109621391Y-44953400D01*
X109690707Y-44944620D01*
X109753766Y-44974709D01*
G37*
%TD.AperFunction*%
%TD*%
%TA.AperFunction,Conductor*%
%TO.N,VCC*%
G36*
X113543039Y-36219685D02*
G01*
X113588794Y-36272489D01*
X113600000Y-36324000D01*
X113600000Y-37200002D01*
X113605320Y-37217573D01*
X113604297Y-37217882D01*
X113612113Y-37238678D01*
X113612397Y-37238602D01*
X113613172Y-37241497D01*
X113614211Y-37244260D01*
X113614499Y-37246447D01*
X113653719Y-37392822D01*
X113684832Y-37446710D01*
X113729485Y-37524051D01*
X113729487Y-37524053D01*
X113793753Y-37588319D01*
X113804365Y-37607755D01*
X113818866Y-37624489D01*
X113820782Y-37637820D01*
X113827238Y-37649642D01*
X113825658Y-37671728D01*
X113828810Y-37693647D01*
X113823214Y-37705898D01*
X113822254Y-37719334D01*
X113808983Y-37737060D01*
X113799785Y-37757203D01*
X113788453Y-37764485D01*
X113780382Y-37775267D01*
X113759636Y-37783004D01*
X113741007Y-37794977D01*
X113719088Y-37798128D01*
X113714918Y-37799684D01*
X113706072Y-37800000D01*
X113518464Y-37800000D01*
X113451425Y-37780315D01*
X113405670Y-37727511D01*
X113396847Y-37700193D01*
X113384515Y-37638191D01*
X113355520Y-37594797D01*
X113323624Y-37547061D01*
X113268995Y-37510560D01*
X113232495Y-37486171D01*
X113232493Y-37486170D01*
X113232490Y-37486169D01*
X113152135Y-37470186D01*
X112947870Y-37470186D01*
X112895288Y-37480645D01*
X112867505Y-37486171D01*
X112867504Y-37486171D01*
X112867501Y-37486172D01*
X112856220Y-37490845D01*
X112855621Y-37489400D01*
X112802204Y-37506122D01*
X112770327Y-37502539D01*
X112749200Y-37497332D01*
X112732495Y-37486170D01*
X112652133Y-37470185D01*
X112639049Y-37470185D01*
X112624430Y-37466582D01*
X112606721Y-37456272D01*
X112587064Y-37450500D01*
X112577144Y-37439052D01*
X112564049Y-37431428D01*
X112554724Y-37413178D01*
X112541309Y-37397696D01*
X112537227Y-37378932D01*
X112532259Y-37369209D01*
X112533152Y-37360201D01*
X112530103Y-37346185D01*
X112530103Y-37211856D01*
X112530103Y-37211854D01*
X112495995Y-37084560D01*
X112430103Y-36970432D01*
X112336917Y-36877246D01*
X112279853Y-36844300D01*
X112222790Y-36811354D01*
X112159142Y-36794300D01*
X112095495Y-36777246D01*
X111963711Y-36777246D01*
X111836415Y-36811354D01*
X111722289Y-36877246D01*
X111722286Y-36877248D01*
X111629105Y-36970429D01*
X111629101Y-36970435D01*
X111591194Y-37036090D01*
X111584190Y-37042767D01*
X111580505Y-37051713D01*
X111559316Y-37066483D01*
X111540626Y-37084304D01*
X111531127Y-37086134D01*
X111523188Y-37091669D01*
X111497374Y-37092639D01*
X111472019Y-37097526D01*
X111461177Y-37094000D01*
X111453368Y-37094294D01*
X111435598Y-37085681D01*
X111420735Y-37080848D01*
X111412936Y-37076240D01*
X111411921Y-37075225D01*
X111411920Y-37075224D01*
X111381537Y-37057683D01*
X111381064Y-37057410D01*
X111380988Y-37057365D01*
X111343404Y-37035666D01*
X111343401Y-37035664D01*
X111305185Y-37025424D01*
X111266972Y-37015185D01*
X111187849Y-37015185D01*
X111187848Y-37015185D01*
X110833028Y-37015185D01*
X110756600Y-37035665D01*
X110756599Y-37035665D01*
X110706440Y-37064625D01*
X110688082Y-37075223D01*
X110688077Y-37075227D01*
X110365489Y-37397816D01*
X110365488Y-37397817D01*
X110316594Y-37446710D01*
X110255271Y-37480194D01*
X110204723Y-37480645D01*
X110152135Y-37470185D01*
X109947870Y-37470185D01*
X109867503Y-37486170D01*
X109856218Y-37490845D01*
X109855619Y-37489399D01*
X109802205Y-37506122D01*
X109744055Y-37490166D01*
X109743775Y-37490844D01*
X109738380Y-37488609D01*
X109734826Y-37487634D01*
X109732649Y-37486235D01*
X109732490Y-37486169D01*
X109652135Y-37470186D01*
X109447870Y-37470186D01*
X109367504Y-37486171D01*
X109276375Y-37547061D01*
X109215485Y-37638191D01*
X109215483Y-37638195D01*
X109203152Y-37700191D01*
X109188437Y-37728321D01*
X109175248Y-37757203D01*
X109172359Y-37759059D01*
X109170768Y-37762102D01*
X109143180Y-37777811D01*
X109116470Y-37794977D01*
X109111875Y-37795637D01*
X109110052Y-37796676D01*
X109081535Y-37800000D01*
X108893928Y-37800000D01*
X108826889Y-37780315D01*
X108781134Y-37727511D01*
X108771190Y-37658353D01*
X108800215Y-37594797D01*
X108806247Y-37588319D01*
X108819341Y-37575225D01*
X108870515Y-37524051D01*
X108946281Y-37392821D01*
X108985500Y-37246452D01*
X108985500Y-37246440D01*
X108985786Y-37244272D01*
X108986823Y-37241512D01*
X108987603Y-37238602D01*
X108987888Y-37238678D01*
X108995703Y-37217883D01*
X108994680Y-37217573D01*
X109000000Y-37200002D01*
X109000000Y-36324000D01*
X109019685Y-36256961D01*
X109072489Y-36211206D01*
X109124000Y-36200000D01*
X113476000Y-36200000D01*
X113543039Y-36219685D01*
G37*
%TD.AperFunction*%
%TD*%
%TA.AperFunction,Conductor*%
%TO.N,GND*%
G36*
X115087911Y-32420185D02*
G01*
X115133666Y-32472989D01*
X115143610Y-32542147D01*
X115114585Y-32605703D01*
X115108554Y-32612180D01*
X115076275Y-32644459D01*
X114999671Y-32759106D01*
X114999664Y-32759119D01*
X114946902Y-32886499D01*
X114946899Y-32886509D01*
X114920000Y-33021739D01*
X114920000Y-33365686D01*
X115320000Y-33365686D01*
X115320000Y-33615686D01*
X114920000Y-33615686D01*
X114920000Y-33959632D01*
X114919999Y-33959632D01*
X114946899Y-34094862D01*
X114946902Y-34094872D01*
X114999664Y-34222252D01*
X114999671Y-34222265D01*
X115076275Y-34336912D01*
X115173773Y-34434410D01*
X115288420Y-34511014D01*
X115288433Y-34511021D01*
X115415814Y-34563783D01*
X115415826Y-34563786D01*
X115495000Y-34579535D01*
X115495000Y-34164928D01*
X115504204Y-34170242D01*
X115580504Y-34190686D01*
X115659496Y-34190686D01*
X115735796Y-34170242D01*
X115745000Y-34164928D01*
X115745000Y-34579534D01*
X115824173Y-34563786D01*
X115824185Y-34563783D01*
X115951566Y-34511021D01*
X115951579Y-34511014D01*
X116066226Y-34434410D01*
X116163724Y-34336912D01*
X116240328Y-34222265D01*
X116240335Y-34222252D01*
X116293097Y-34094872D01*
X116293100Y-34094862D01*
X116320000Y-33959632D01*
X116320000Y-33615686D01*
X115920000Y-33615686D01*
X115920000Y-33365686D01*
X116320000Y-33365686D01*
X116320000Y-33021739D01*
X116293100Y-32886509D01*
X116293097Y-32886499D01*
X116240335Y-32759119D01*
X116240328Y-32759107D01*
X116194485Y-32690498D01*
X116184999Y-32660204D01*
X116173903Y-32630454D01*
X116174633Y-32627097D01*
X116173607Y-32623821D01*
X116182004Y-32593208D01*
X116188754Y-32562181D01*
X116191182Y-32559752D01*
X116192091Y-32556441D01*
X116215711Y-32535223D01*
X116238160Y-32512775D01*
X116241514Y-32512045D01*
X116244070Y-32509750D01*
X116275409Y-32504671D01*
X116306432Y-32497923D01*
X116310968Y-32498909D01*
X116313040Y-32498574D01*
X116340920Y-32505425D01*
X116390405Y-32523881D01*
X116414608Y-32532909D01*
X116430694Y-32540255D01*
X116562415Y-32612180D01*
X116602907Y-32634290D01*
X116617790Y-32643855D01*
X116774863Y-32761438D01*
X116788234Y-32773024D01*
X116926972Y-32911762D01*
X116938558Y-32925133D01*
X117056145Y-33082211D01*
X117065709Y-33097092D01*
X117065710Y-33097094D01*
X117159742Y-33269299D01*
X117167092Y-33285393D01*
X117235660Y-33469233D01*
X117240644Y-33486208D01*
X117282351Y-33677931D01*
X117284869Y-33695442D01*
X117299183Y-33895565D01*
X117299499Y-33904412D01*
X117299499Y-34974519D01*
X117299501Y-34974548D01*
X117299501Y-35051253D01*
X117335964Y-35351552D01*
X117378202Y-35522915D01*
X117408360Y-35645271D01*
X117433171Y-35710691D01*
X117515628Y-35928113D01*
X117515629Y-35928114D01*
X117515631Y-35928119D01*
X117515631Y-35928120D01*
X117615944Y-36119249D01*
X117656209Y-36195967D01*
X117704616Y-36266096D01*
X117828047Y-36444918D01*
X117828049Y-36444920D01*
X117828051Y-36444923D01*
X117877155Y-36500350D01*
X118028647Y-36671351D01*
X118193418Y-36817324D01*
X118255076Y-36871948D01*
X118504032Y-37043791D01*
X118771886Y-37184371D01*
X118935580Y-37246452D01*
X119054727Y-37291639D01*
X119054729Y-37291639D01*
X119054733Y-37291641D01*
X119348447Y-37364035D01*
X119585520Y-37392821D01*
X119648743Y-37400498D01*
X119648745Y-37400498D01*
X119719664Y-37400498D01*
X119719672Y-37400499D01*
X119734106Y-37400499D01*
X119799997Y-37400499D01*
X119865890Y-37400499D01*
X125234107Y-37400499D01*
X125296248Y-37400499D01*
X125303735Y-37400725D01*
X125593796Y-37418270D01*
X125608657Y-37420074D01*
X125615758Y-37421376D01*
X125890797Y-37471779D01*
X125905334Y-37475362D01*
X126179172Y-37560694D01*
X126193163Y-37565999D01*
X126454743Y-37683726D01*
X126467989Y-37690679D01*
X126713460Y-37839071D01*
X126725776Y-37847572D01*
X126951573Y-38024472D01*
X126962781Y-38034402D01*
X127165596Y-38237217D01*
X127175526Y-38248425D01*
X127222690Y-38308625D01*
X127352425Y-38474219D01*
X127360927Y-38486536D01*
X127374768Y-38509432D01*
X127509316Y-38732003D01*
X127516275Y-38745262D01*
X127633998Y-39006831D01*
X127639307Y-39020832D01*
X127724636Y-39294663D01*
X127728220Y-39309201D01*
X127779924Y-39591339D01*
X127781729Y-39606204D01*
X127799048Y-39892513D01*
X127799048Y-39907487D01*
X127781729Y-40193795D01*
X127779924Y-40208660D01*
X127728220Y-40490798D01*
X127724636Y-40505336D01*
X127639307Y-40779167D01*
X127633998Y-40793168D01*
X127516275Y-41054737D01*
X127509316Y-41067996D01*
X127360929Y-41313460D01*
X127352423Y-41325783D01*
X127175526Y-41551574D01*
X127165596Y-41562782D01*
X126962781Y-41765597D01*
X126951573Y-41775527D01*
X126725782Y-41952423D01*
X126713459Y-41960929D01*
X126467995Y-42109317D01*
X126454736Y-42116276D01*
X126193168Y-42233998D01*
X126179167Y-42239307D01*
X125905335Y-42324636D01*
X125890797Y-42328220D01*
X125608659Y-42379924D01*
X125593794Y-42381729D01*
X125303752Y-42399274D01*
X125296265Y-42399500D01*
X119851360Y-42399500D01*
X119851356Y-42399499D01*
X119648742Y-42399499D01*
X119393824Y-42430453D01*
X119348446Y-42435963D01*
X119226634Y-42465987D01*
X119054726Y-42508358D01*
X118771880Y-42615628D01*
X118504033Y-42756206D01*
X118504024Y-42756212D01*
X118255076Y-42928047D01*
X118255070Y-42928052D01*
X118028650Y-43128643D01*
X117989811Y-43172484D01*
X117828049Y-43355076D01*
X117828047Y-43355078D01*
X117828045Y-43355081D01*
X117656210Y-43604026D01*
X117656205Y-43604035D01*
X117515627Y-43871882D01*
X117408357Y-44154727D01*
X117385920Y-44245759D01*
X117335962Y-44448449D01*
X117321376Y-44568568D01*
X117299499Y-44748745D01*
X117299499Y-50895573D01*
X117299183Y-50904420D01*
X117284868Y-51104558D01*
X117282350Y-51122069D01*
X117240645Y-51313787D01*
X117235661Y-51330763D01*
X117167089Y-51514609D01*
X117159739Y-51530702D01*
X117065710Y-51702904D01*
X117056145Y-51717788D01*
X116938560Y-51874862D01*
X116926975Y-51888232D01*
X116788230Y-52026978D01*
X116774858Y-52038564D01*
X116617790Y-52156143D01*
X116602907Y-52165708D01*
X116430700Y-52259740D01*
X116414607Y-52267090D01*
X116230763Y-52335661D01*
X116213787Y-52340645D01*
X116022068Y-52382350D01*
X116004557Y-52384868D01*
X115823779Y-52397798D01*
X115804417Y-52399183D01*
X115795572Y-52399499D01*
X106804427Y-52399499D01*
X106795581Y-52399183D01*
X106773621Y-52397612D01*
X106595441Y-52384868D01*
X106577930Y-52382350D01*
X106386212Y-52340645D01*
X106369236Y-52335661D01*
X106185390Y-52267089D01*
X106169298Y-52259739D01*
X105997095Y-52165710D01*
X105982210Y-52156145D01*
X105982207Y-52156143D01*
X105825133Y-52038558D01*
X105811763Y-52026972D01*
X105673027Y-51888236D01*
X105661441Y-51874866D01*
X105661438Y-51874862D01*
X105543850Y-51717784D01*
X105534289Y-51702904D01*
X105440260Y-51530701D01*
X105432910Y-51514609D01*
X105364335Y-51330755D01*
X105359356Y-51313796D01*
X105317648Y-51122065D01*
X105315131Y-51104556D01*
X105305214Y-50965904D01*
X105300813Y-50904373D01*
X105300498Y-50895535D01*
X105300498Y-50469702D01*
X106550000Y-50469702D01*
X106561602Y-50528033D01*
X106561603Y-50528034D01*
X106605808Y-50594191D01*
X106671965Y-50638396D01*
X106671966Y-50638397D01*
X106730297Y-50649999D01*
X106730301Y-50650000D01*
X107525000Y-50650000D01*
X107775000Y-50650000D01*
X108569699Y-50650000D01*
X108569702Y-50649999D01*
X108628033Y-50638397D01*
X108628034Y-50638396D01*
X108694191Y-50594191D01*
X108738396Y-50528034D01*
X108738397Y-50528033D01*
X108749999Y-50469702D01*
X113850000Y-50469702D01*
X113861602Y-50528033D01*
X113861603Y-50528034D01*
X113905808Y-50594191D01*
X113971965Y-50638396D01*
X113971966Y-50638397D01*
X114030297Y-50649999D01*
X114030301Y-50650000D01*
X114825000Y-50650000D01*
X115075000Y-50650000D01*
X115869699Y-50650000D01*
X115869702Y-50649999D01*
X115928033Y-50638397D01*
X115928034Y-50638396D01*
X115994191Y-50594191D01*
X116038396Y-50528034D01*
X116038397Y-50528033D01*
X116049999Y-50469702D01*
X116050000Y-50469699D01*
X116050000Y-49475000D01*
X115075000Y-49475000D01*
X115075000Y-50650000D01*
X114825000Y-50650000D01*
X114825000Y-49475000D01*
X113850000Y-49475000D01*
X113850000Y-50469702D01*
X108749999Y-50469702D01*
X108750000Y-50469699D01*
X108750000Y-49475000D01*
X107775000Y-49475000D01*
X107775000Y-50650000D01*
X107525000Y-50650000D01*
X107525000Y-49475000D01*
X106550000Y-49475000D01*
X106550000Y-50469702D01*
X105300498Y-50469702D01*
X105300498Y-48230297D01*
X106550000Y-48230297D01*
X106550000Y-49225000D01*
X107525000Y-49225000D01*
X107775000Y-49225000D01*
X108750000Y-49225000D01*
X108750000Y-48230301D01*
X108749999Y-48230297D01*
X113850000Y-48230297D01*
X113850000Y-49225000D01*
X114825000Y-49225000D01*
X115075000Y-49225000D01*
X116050000Y-49225000D01*
X116050000Y-48230301D01*
X116049999Y-48230297D01*
X116038397Y-48171966D01*
X116038396Y-48171965D01*
X115994191Y-48105808D01*
X115928034Y-48061603D01*
X115928033Y-48061602D01*
X115869702Y-48050000D01*
X115075000Y-48050000D01*
X115075000Y-49225000D01*
X114825000Y-49225000D01*
X114825000Y-48050000D01*
X114030297Y-48050000D01*
X113971966Y-48061602D01*
X113971965Y-48061603D01*
X113905808Y-48105808D01*
X113861603Y-48171965D01*
X113861602Y-48171966D01*
X113850000Y-48230297D01*
X108749999Y-48230297D01*
X108738397Y-48171966D01*
X108738396Y-48171965D01*
X108694191Y-48105808D01*
X108628034Y-48061603D01*
X108628033Y-48061602D01*
X108569702Y-48050000D01*
X107775000Y-48050000D01*
X107775000Y-49225000D01*
X107525000Y-49225000D01*
X107525000Y-48050000D01*
X106730297Y-48050000D01*
X106671966Y-48061602D01*
X106671965Y-48061603D01*
X106605808Y-48105808D01*
X106561603Y-48171965D01*
X106561602Y-48171966D01*
X106550000Y-48230297D01*
X105300498Y-48230297D01*
X105300498Y-44951369D01*
X105300502Y-44951355D01*
X105300502Y-44748747D01*
X105292237Y-44680682D01*
X105264039Y-44448450D01*
X105191645Y-44154735D01*
X105191644Y-44154732D01*
X105191643Y-44154728D01*
X105151800Y-44049672D01*
X105084375Y-43871887D01*
X104943794Y-43604032D01*
X104813841Y-43415762D01*
X104771954Y-43355077D01*
X104771949Y-43355071D01*
X104571354Y-43128647D01*
X104571352Y-43128645D01*
X104344928Y-42928050D01*
X104344922Y-42928045D01*
X104095974Y-42756210D01*
X104095972Y-42756209D01*
X104095968Y-42756206D01*
X103972701Y-42691510D01*
X103828120Y-42615628D01*
X103828115Y-42615626D01*
X103828113Y-42615625D01*
X103730845Y-42578736D01*
X103545271Y-42508356D01*
X103429819Y-42479900D01*
X103251550Y-42435961D01*
X103071370Y-42414083D01*
X102951252Y-42399498D01*
X102951250Y-42399498D01*
X102799997Y-42399498D01*
X102734105Y-42399498D01*
X102734104Y-42399498D01*
X97303747Y-42399498D01*
X97296261Y-42399272D01*
X97006205Y-42381728D01*
X96991339Y-42379923D01*
X96709201Y-42328219D01*
X96694663Y-42324635D01*
X96636398Y-42306479D01*
X104675001Y-42306479D01*
X104689835Y-42400149D01*
X104689837Y-42400155D01*
X104747356Y-42513041D01*
X104747363Y-42513050D01*
X104836949Y-42602636D01*
X104836953Y-42602639D01*
X104949855Y-42660166D01*
X105043514Y-42674999D01*
X105149999Y-42674999D01*
X105400000Y-42674999D01*
X105506479Y-42674999D01*
X105600149Y-42660164D01*
X105600155Y-42660162D01*
X105713041Y-42602643D01*
X105713050Y-42602636D01*
X105802636Y-42513050D01*
X105802639Y-42513046D01*
X105860166Y-42400144D01*
X105875000Y-42306486D01*
X105875000Y-42125000D01*
X105400000Y-42125000D01*
X105400000Y-42674999D01*
X105149999Y-42674999D01*
X105150000Y-42674998D01*
X105150000Y-42125000D01*
X104675001Y-42125000D01*
X104675001Y-42306479D01*
X96636398Y-42306479D01*
X96420824Y-42239304D01*
X96406826Y-42233995D01*
X96196476Y-42139324D01*
X96145268Y-42116277D01*
X96132010Y-42109319D01*
X95886540Y-41960928D01*
X95874216Y-41952421D01*
X95859237Y-41940686D01*
X95648426Y-41775525D01*
X95637218Y-41765595D01*
X95565136Y-41693513D01*
X104675000Y-41693513D01*
X104675000Y-41875000D01*
X105150000Y-41875000D01*
X105400000Y-41875000D01*
X105874999Y-41875000D01*
X105874999Y-41693520D01*
X105874992Y-41693475D01*
X106324500Y-41693475D01*
X106324500Y-42306517D01*
X106334898Y-42372165D01*
X106339354Y-42400304D01*
X106396950Y-42513342D01*
X106396952Y-42513344D01*
X106396954Y-42513347D01*
X106486652Y-42603045D01*
X106486654Y-42603046D01*
X106486658Y-42603050D01*
X106598746Y-42660162D01*
X106599698Y-42660647D01*
X106687116Y-42674491D01*
X106690311Y-42674998D01*
X106693475Y-42675499D01*
X106693481Y-42675500D01*
X107156518Y-42675499D01*
X107250304Y-42660646D01*
X107363342Y-42603050D01*
X107453050Y-42513342D01*
X107510646Y-42400304D01*
X107510646Y-42400302D01*
X107510647Y-42400301D01*
X107522277Y-42326869D01*
X107525500Y-42306519D01*
X107525499Y-41693482D01*
X107510646Y-41599696D01*
X107453050Y-41486658D01*
X107453046Y-41486654D01*
X107453045Y-41486652D01*
X107363343Y-41396950D01*
X107355448Y-41391214D01*
X107357098Y-41388942D01*
X107317396Y-41351431D01*
X107300500Y-41288942D01*
X107300500Y-40928856D01*
X107320185Y-40861817D01*
X107372989Y-40816062D01*
X107392402Y-40809082D01*
X107493186Y-40782078D01*
X107607314Y-40716186D01*
X107700500Y-40623000D01*
X107766392Y-40508872D01*
X107800500Y-40381578D01*
X107800500Y-40249794D01*
X107766392Y-40122500D01*
X107700500Y-40008372D01*
X107607314Y-39915186D01*
X107550250Y-39882240D01*
X107493187Y-39849294D01*
X107387075Y-39820862D01*
X107365892Y-39815186D01*
X107234108Y-39815186D01*
X107106812Y-39849294D01*
X106992686Y-39915186D01*
X106992683Y-39915188D01*
X106899502Y-40008369D01*
X106899500Y-40008372D01*
X106833608Y-40122498D01*
X106799500Y-40249794D01*
X106799500Y-40339852D01*
X106779815Y-40406891D01*
X106763186Y-40427529D01*
X106759540Y-40431174D01*
X106759535Y-40431182D01*
X106719982Y-40499690D01*
X106719979Y-40499695D01*
X106699500Y-40576125D01*
X106699500Y-41217640D01*
X106679815Y-41284679D01*
X106627011Y-41330434D01*
X106608842Y-41335911D01*
X106608981Y-41336337D01*
X106599699Y-41339352D01*
X106544297Y-41367580D01*
X106486658Y-41396950D01*
X106486657Y-41396951D01*
X106486652Y-41396954D01*
X106396954Y-41486652D01*
X106396951Y-41486657D01*
X106396950Y-41486658D01*
X106394547Y-41491374D01*
X106339352Y-41599698D01*
X106324500Y-41693475D01*
X105874992Y-41693475D01*
X105860164Y-41599850D01*
X105860162Y-41599844D01*
X105802643Y-41486958D01*
X105802636Y-41486949D01*
X105713050Y-41397363D01*
X105713046Y-41397360D01*
X105600144Y-41339833D01*
X105506486Y-41325000D01*
X105400000Y-41325000D01*
X105400000Y-41875000D01*
X105150000Y-41875000D01*
X105150000Y-41325000D01*
X105043520Y-41325000D01*
X104949849Y-41339835D01*
X104949844Y-41339837D01*
X104836958Y-41397356D01*
X104836949Y-41397363D01*
X104747363Y-41486949D01*
X104747360Y-41486953D01*
X104689833Y-41599855D01*
X104675000Y-41693513D01*
X95565136Y-41693513D01*
X95434403Y-41562781D01*
X95424473Y-41551573D01*
X95377310Y-41491374D01*
X95247573Y-41325776D01*
X95239071Y-41313458D01*
X95090680Y-41067987D01*
X95083722Y-41054730D01*
X94966000Y-40793163D01*
X94960698Y-40779182D01*
X94875363Y-40505334D01*
X94871780Y-40490797D01*
X94826214Y-40242152D01*
X94820075Y-40208657D01*
X94818271Y-40193794D01*
X94800952Y-39907472D01*
X94800952Y-39892527D01*
X94807643Y-39781901D01*
X95799499Y-39781901D01*
X95799499Y-40018096D01*
X95836445Y-40251367D01*
X95909432Y-40475995D01*
X95984337Y-40623002D01*
X96016656Y-40686432D01*
X96155482Y-40877509D01*
X96322489Y-41044516D01*
X96513566Y-41183342D01*
X96580880Y-41217640D01*
X96724002Y-41290565D01*
X96724004Y-41290565D01*
X96724007Y-41290567D01*
X96803556Y-41316414D01*
X96948630Y-41363552D01*
X97181902Y-41400499D01*
X97181907Y-41400499D01*
X97418096Y-41400499D01*
X97651367Y-41363552D01*
X97688671Y-41351431D01*
X97875991Y-41290567D01*
X98086432Y-41183342D01*
X98277509Y-41044516D01*
X98444516Y-40877509D01*
X98583342Y-40686432D01*
X98690567Y-40475991D01*
X98763552Y-40251367D01*
X98768989Y-40217039D01*
X98800499Y-40018096D01*
X98800499Y-39781901D01*
X98763552Y-39548630D01*
X98727775Y-39438521D01*
X98690567Y-39324007D01*
X98690565Y-39324004D01*
X98690565Y-39324002D01*
X98583341Y-39113565D01*
X98578436Y-39106814D01*
X98444516Y-38922489D01*
X98277509Y-38755482D01*
X98086432Y-38616656D01*
X97875995Y-38509432D01*
X97651367Y-38436445D01*
X97418096Y-38399499D01*
X97418091Y-38399499D01*
X97181907Y-38399499D01*
X97181902Y-38399499D01*
X96948630Y-38436445D01*
X96724002Y-38509432D01*
X96513565Y-38616656D01*
X96404549Y-38695861D01*
X96322489Y-38755482D01*
X96322487Y-38755484D01*
X96322486Y-38755484D01*
X96155484Y-38922486D01*
X96155484Y-38922487D01*
X96155482Y-38922489D01*
X96116395Y-38976288D01*
X96016656Y-39113565D01*
X95909432Y-39324002D01*
X95836445Y-39548630D01*
X95799499Y-39781901D01*
X94807643Y-39781901D01*
X94818271Y-39606201D01*
X94820076Y-39591340D01*
X94848082Y-39438521D01*
X94871780Y-39309198D01*
X94875364Y-39294664D01*
X94960699Y-39020812D01*
X94965997Y-39006842D01*
X95083727Y-38745258D01*
X95090680Y-38732012D01*
X95160414Y-38616657D01*
X95239075Y-38486534D01*
X95247567Y-38474230D01*
X95392190Y-38289632D01*
X106279999Y-38289632D01*
X106306899Y-38424862D01*
X106306902Y-38424872D01*
X106359664Y-38552252D01*
X106359671Y-38552265D01*
X106436275Y-38666912D01*
X106533773Y-38764410D01*
X106648420Y-38841014D01*
X106648433Y-38841021D01*
X106775814Y-38893783D01*
X106775826Y-38893786D01*
X106855000Y-38909535D01*
X106855000Y-38494928D01*
X106864204Y-38500242D01*
X106940504Y-38520686D01*
X107019496Y-38520686D01*
X107095796Y-38500242D01*
X107105000Y-38494928D01*
X107105000Y-38909534D01*
X107184173Y-38893786D01*
X107184185Y-38893783D01*
X107311566Y-38841021D01*
X107311579Y-38841014D01*
X107426226Y-38764410D01*
X107430939Y-38760543D01*
X107432164Y-38762036D01*
X107485621Y-38732833D01*
X107555313Y-38737803D01*
X107611256Y-38779663D01*
X107623405Y-38799534D01*
X107661215Y-38876877D01*
X107743811Y-38959473D01*
X107848747Y-39010772D01*
X107916786Y-39020685D01*
X107974999Y-39020684D01*
X107975000Y-39020684D01*
X107975000Y-38370686D01*
X107594000Y-38370686D01*
X107585314Y-38368135D01*
X107576353Y-38369424D01*
X107552312Y-38358445D01*
X107526961Y-38351001D01*
X107521033Y-38344160D01*
X107512797Y-38340399D01*
X107498507Y-38318164D01*
X107481206Y-38298197D01*
X107478918Y-38287682D01*
X107475023Y-38281621D01*
X107470000Y-38246686D01*
X107470000Y-38244686D01*
X107489685Y-38177647D01*
X107542489Y-38131892D01*
X107594000Y-38120686D01*
X107976000Y-38120686D01*
X108043039Y-38140371D01*
X108088794Y-38193175D01*
X108100000Y-38244686D01*
X108100000Y-38245686D01*
X108101000Y-38245686D01*
X108168039Y-38265371D01*
X108213794Y-38318175D01*
X108225000Y-38369686D01*
X108225000Y-39020685D01*
X108283222Y-39020685D01*
X108307621Y-39017130D01*
X108376799Y-39026943D01*
X108429689Y-39072598D01*
X108449500Y-39139600D01*
X108449500Y-39505537D01*
X108429815Y-39572576D01*
X108413181Y-39593218D01*
X108139511Y-39866888D01*
X108139510Y-39866890D01*
X108091686Y-39949724D01*
X108091685Y-39949726D01*
X108080203Y-39969612D01*
X108080201Y-39969615D01*
X108067673Y-40016371D01*
X108049500Y-40084194D01*
X108049500Y-40084196D01*
X108049500Y-43959308D01*
X108073712Y-44049672D01*
X108080200Y-44073885D01*
X108080200Y-44073886D01*
X108080201Y-44073887D01*
X108139511Y-44176614D01*
X108139513Y-44176616D01*
X109063181Y-45100284D01*
X109096666Y-45161607D01*
X109099500Y-45187965D01*
X109099500Y-46259309D01*
X109127684Y-46364494D01*
X109130202Y-46373890D01*
X109130203Y-46373891D01*
X109182887Y-46465140D01*
X109199501Y-46527141D01*
X109199501Y-46769752D01*
X109211132Y-46828229D01*
X109211133Y-46828230D01*
X109255448Y-46894552D01*
X109321770Y-46938867D01*
X109321771Y-46938868D01*
X109380248Y-46950499D01*
X109380251Y-46950500D01*
X109380253Y-46950500D01*
X109719750Y-46950500D01*
X109750482Y-46944386D01*
X109775809Y-46939349D01*
X109824192Y-46939349D01*
X109880249Y-46950500D01*
X109880252Y-46950500D01*
X110219749Y-46950500D01*
X110231707Y-46948121D01*
X110277090Y-46939094D01*
X110325470Y-46939094D01*
X110380296Y-46949999D01*
X110380300Y-46950000D01*
X110424999Y-46950000D01*
X110424999Y-45250000D01*
X110380302Y-45250000D01*
X110325471Y-45260906D01*
X110291639Y-45262913D01*
X110279475Y-45261964D01*
X110278231Y-45261133D01*
X110219748Y-45249500D01*
X110119666Y-45249500D01*
X110114858Y-45249125D01*
X110086526Y-45238349D01*
X110057461Y-45229815D01*
X110054204Y-45226056D01*
X110049552Y-45224287D01*
X110031543Y-45199905D01*
X110011706Y-45177011D01*
X110010483Y-45171390D01*
X110008042Y-45168085D01*
X110007307Y-45156791D01*
X110000500Y-45125500D01*
X110000500Y-44890693D01*
X110000500Y-44890691D01*
X109969799Y-44776114D01*
X109969799Y-44776113D01*
X109910489Y-44673386D01*
X108986819Y-43749716D01*
X108953334Y-43688393D01*
X108950500Y-43662035D01*
X108950500Y-40381467D01*
X108970185Y-40314428D01*
X108986819Y-40293786D01*
X109086811Y-40193794D01*
X109260490Y-40020115D01*
X109319799Y-39917388D01*
X109329053Y-39882853D01*
X109333331Y-39866889D01*
X109338302Y-39848333D01*
X109343491Y-39839817D01*
X109344822Y-39829932D01*
X109361373Y-39810477D01*
X109374664Y-39788671D01*
X109383634Y-39784312D01*
X109390097Y-39776717D01*
X109414535Y-39769300D01*
X109437509Y-39758139D01*
X109449193Y-39758781D01*
X109456956Y-39756426D01*
X109476944Y-39760308D01*
X109491935Y-39761133D01*
X109503284Y-39764354D01*
X109506814Y-39766392D01*
X109572071Y-39783877D01*
X109572954Y-39784128D01*
X109601749Y-39802267D01*
X109630851Y-39820006D01*
X109631267Y-39820862D01*
X109632071Y-39821369D01*
X109646490Y-39852201D01*
X109661380Y-39882853D01*
X109661267Y-39883797D01*
X109661670Y-39884659D01*
X109657126Y-39918429D01*
X109653085Y-39952228D01*
X109652364Y-39953818D01*
X109652353Y-39953905D01*
X109652294Y-39953974D01*
X109650950Y-39956942D01*
X109650904Y-39957038D01*
X109650902Y-39957041D01*
X109627370Y-40006214D01*
X109622507Y-40016377D01*
X109602827Y-40083398D01*
X109602825Y-40083408D01*
X109602825Y-40083410D01*
X109594619Y-40140485D01*
X109594500Y-40141311D01*
X109594500Y-41532243D01*
X109594734Y-41535812D01*
X109595000Y-41543925D01*
X109595000Y-41656073D01*
X109594734Y-41664185D01*
X109594500Y-41667754D01*
X109594500Y-43106917D01*
X109597024Y-43139031D01*
X109597027Y-43139054D01*
X109603082Y-43177322D01*
X109636387Y-43261147D01*
X109675809Y-43318836D01*
X109715340Y-43361935D01*
X109715346Y-43361940D01*
X109715348Y-43361942D01*
X110649023Y-44125858D01*
X110688442Y-44183544D01*
X110694500Y-44221828D01*
X110694500Y-45179137D01*
X110674999Y-45245549D01*
X110674999Y-46950000D01*
X110719698Y-46950000D01*
X110719698Y-46949999D01*
X110774525Y-46939094D01*
X110822909Y-46939094D01*
X110880249Y-46950500D01*
X110880252Y-46950500D01*
X111219750Y-46950500D01*
X111275808Y-46939349D01*
X111324192Y-46939349D01*
X111380249Y-46950500D01*
X111380252Y-46950500D01*
X111719750Y-46950500D01*
X111777090Y-46939094D01*
X111825473Y-46939094D01*
X111880299Y-46949999D01*
X111880302Y-46950000D01*
X111925001Y-46950000D01*
X112175001Y-46950000D01*
X112219700Y-46950000D01*
X112219700Y-46949999D01*
X112275808Y-46938839D01*
X112324192Y-46938839D01*
X112380300Y-46949999D01*
X112380301Y-46950000D01*
X112425000Y-46950000D01*
X112425000Y-46225000D01*
X112175001Y-46225000D01*
X112175001Y-46950000D01*
X111925001Y-46950000D01*
X111925001Y-45975000D01*
X112175001Y-45975000D01*
X112425000Y-45975000D01*
X112425000Y-45250000D01*
X112675000Y-45250000D01*
X112675000Y-46950000D01*
X112719699Y-46950000D01*
X112719699Y-46949999D01*
X112774526Y-46939094D01*
X112822909Y-46939094D01*
X112839215Y-46942337D01*
X112880249Y-46950500D01*
X112880251Y-46950500D01*
X113219749Y-46950500D01*
X113219750Y-46950499D01*
X113234567Y-46947552D01*
X113278228Y-46938868D01*
X113278228Y-46938867D01*
X113278230Y-46938867D01*
X113344551Y-46894552D01*
X113388866Y-46828231D01*
X113388866Y-46828229D01*
X113388867Y-46828229D01*
X113400498Y-46769752D01*
X113400499Y-46769750D01*
X113400499Y-45430249D01*
X113400498Y-45430247D01*
X113388867Y-45371770D01*
X113388866Y-45371769D01*
X113344551Y-45305447D01*
X113278229Y-45261132D01*
X113278228Y-45261131D01*
X113219751Y-45249500D01*
X113219747Y-45249500D01*
X112880251Y-45249500D01*
X112880246Y-45249500D01*
X112822909Y-45260905D01*
X112774528Y-45260906D01*
X112719697Y-45250000D01*
X112675000Y-45250000D01*
X112425000Y-45250000D01*
X112380303Y-45250000D01*
X112324190Y-45261161D01*
X112275810Y-45261161D01*
X112219698Y-45250000D01*
X112175001Y-45250000D01*
X112175001Y-45975000D01*
X111925001Y-45975000D01*
X111925001Y-45236018D01*
X111908334Y-45205495D01*
X111905500Y-45179137D01*
X111905500Y-44245759D01*
X111925185Y-44178720D01*
X111946085Y-44154010D01*
X112897645Y-43288957D01*
X112916311Y-43269611D01*
X112937215Y-43244897D01*
X112937222Y-43244884D01*
X112977486Y-43170092D01*
X112977487Y-43170087D01*
X112977490Y-43170083D01*
X112997175Y-43103044D01*
X113005500Y-43045146D01*
X113005500Y-42686941D01*
X113025185Y-42619902D01*
X113077989Y-42574147D01*
X113147147Y-42564203D01*
X113210703Y-42593228D01*
X113217181Y-42599260D01*
X113286652Y-42668731D01*
X113286654Y-42668732D01*
X113286658Y-42668736D01*
X113398746Y-42725848D01*
X113399698Y-42726333D01*
X113487116Y-42740177D01*
X113490311Y-42740684D01*
X113493475Y-42741185D01*
X113493481Y-42741186D01*
X113956518Y-42741185D01*
X114050304Y-42726332D01*
X114163342Y-42668736D01*
X114253050Y-42579028D01*
X114310646Y-42465990D01*
X114310646Y-42465988D01*
X114310647Y-42465987D01*
X114325500Y-42372210D01*
X114325500Y-42372165D01*
X114775001Y-42372165D01*
X114789835Y-42465835D01*
X114789837Y-42465841D01*
X114847356Y-42578727D01*
X114847363Y-42578736D01*
X114936949Y-42668322D01*
X114936953Y-42668325D01*
X115049855Y-42725852D01*
X115143514Y-42740685D01*
X115249999Y-42740685D01*
X115500000Y-42740685D01*
X115606479Y-42740685D01*
X115700149Y-42725850D01*
X115700155Y-42725848D01*
X115813041Y-42668329D01*
X115813050Y-42668322D01*
X115902636Y-42578736D01*
X115902639Y-42578732D01*
X115960166Y-42465830D01*
X115975000Y-42372172D01*
X115975000Y-42190686D01*
X115500000Y-42190686D01*
X115500000Y-42740685D01*
X115249999Y-42740685D01*
X115250000Y-42740684D01*
X115250000Y-42190686D01*
X114775001Y-42190686D01*
X114775001Y-42372165D01*
X114325500Y-42372165D01*
X114325500Y-42139324D01*
X114325499Y-41759199D01*
X114775000Y-41759199D01*
X114775000Y-41940686D01*
X115250000Y-41940686D01*
X115500000Y-41940686D01*
X115974999Y-41940686D01*
X115974999Y-41759206D01*
X115960164Y-41665536D01*
X115960162Y-41665530D01*
X115902643Y-41552644D01*
X115902636Y-41552635D01*
X115813050Y-41463049D01*
X115813046Y-41463046D01*
X115700144Y-41405519D01*
X115606486Y-41390686D01*
X115500000Y-41390686D01*
X115500000Y-41940686D01*
X115250000Y-41940686D01*
X115250000Y-41390686D01*
X115143520Y-41390686D01*
X115049849Y-41405521D01*
X115049844Y-41405523D01*
X114936958Y-41463042D01*
X114936949Y-41463049D01*
X114847363Y-41552635D01*
X114847360Y-41552639D01*
X114789833Y-41665541D01*
X114775000Y-41759199D01*
X114325499Y-41759199D01*
X114325499Y-41759168D01*
X114325499Y-41759167D01*
X114310646Y-41665382D01*
X114253050Y-41552344D01*
X114253046Y-41552340D01*
X114253045Y-41552338D01*
X114163347Y-41462640D01*
X114163338Y-41462633D01*
X114093204Y-41426898D01*
X114042408Y-41378924D01*
X114025499Y-41316414D01*
X114025499Y-40285439D01*
X114025498Y-40285435D01*
X114016370Y-40251367D01*
X114005021Y-40209011D01*
X113965459Y-40140488D01*
X113606872Y-39781901D01*
X123799499Y-39781901D01*
X123799499Y-40018096D01*
X123836445Y-40251367D01*
X123909432Y-40475995D01*
X124016658Y-40686435D01*
X124155475Y-40877502D01*
X124155479Y-40877507D01*
X124322489Y-41044517D01*
X124322494Y-41044521D01*
X124476192Y-41156188D01*
X124513565Y-41183341D01*
X124647657Y-41251664D01*
X124724001Y-41290564D01*
X124724003Y-41290564D01*
X124724006Y-41290566D01*
X124844410Y-41329687D01*
X124948629Y-41363551D01*
X125181901Y-41400498D01*
X125181906Y-41400498D01*
X125418095Y-41400498D01*
X125651366Y-41363551D01*
X125688667Y-41351431D01*
X125875990Y-41290566D01*
X126086431Y-41183341D01*
X126277508Y-41044516D01*
X126444515Y-40877509D01*
X126583340Y-40686432D01*
X126690565Y-40475991D01*
X126763550Y-40251367D01*
X126768987Y-40217039D01*
X126800497Y-40018096D01*
X126800497Y-39781901D01*
X126763550Y-39548630D01*
X126727773Y-39438521D01*
X126690565Y-39324007D01*
X126690563Y-39324004D01*
X126690563Y-39324002D01*
X126640569Y-39225885D01*
X126583340Y-39113566D01*
X126519378Y-39025529D01*
X126444520Y-38922495D01*
X126444516Y-38922490D01*
X126277506Y-38755480D01*
X126277501Y-38755476D01*
X126086434Y-38616659D01*
X126086433Y-38616658D01*
X126086431Y-38616657D01*
X125960055Y-38552265D01*
X125875994Y-38509433D01*
X125651366Y-38436446D01*
X125418095Y-38399500D01*
X125418090Y-38399500D01*
X125181906Y-38399500D01*
X125181901Y-38399500D01*
X124948629Y-38436446D01*
X124724001Y-38509433D01*
X124513561Y-38616659D01*
X124322494Y-38755476D01*
X124322489Y-38755480D01*
X124155479Y-38922490D01*
X124155475Y-38922495D01*
X124016658Y-39113562D01*
X123909432Y-39324002D01*
X123836445Y-39548630D01*
X123799499Y-39781901D01*
X113606872Y-39781901D01*
X113057837Y-39232866D01*
X113024352Y-39171543D01*
X113029336Y-39101851D01*
X113071208Y-39045918D01*
X113109896Y-39026412D01*
X113127323Y-39021185D01*
X113152132Y-39021185D01*
X113232495Y-39005201D01*
X113274741Y-38976972D01*
X113292548Y-38971632D01*
X113309641Y-38971533D01*
X113325954Y-38966425D01*
X113347969Y-38971311D01*
X113362417Y-38971228D01*
X113370392Y-38976288D01*
X113382629Y-38979004D01*
X113412972Y-38993838D01*
X113448607Y-39011259D01*
X113516739Y-39021186D01*
X113516740Y-39021186D01*
X113883261Y-39021186D01*
X113917326Y-39016222D01*
X113951393Y-39011259D01*
X114046108Y-38964955D01*
X114114980Y-38953196D01*
X114155029Y-38964956D01*
X114248748Y-39010773D01*
X114316786Y-39020685D01*
X114374999Y-39020684D01*
X114375000Y-39020684D01*
X114375000Y-38369686D01*
X114377550Y-38361000D01*
X114376262Y-38352039D01*
X114387240Y-38327998D01*
X114394685Y-38302647D01*
X114401525Y-38296719D01*
X114405287Y-38288483D01*
X114427521Y-38274193D01*
X114447489Y-38256892D01*
X114458003Y-38254604D01*
X114464065Y-38250709D01*
X114499000Y-38245686D01*
X114501000Y-38245686D01*
X114568039Y-38265371D01*
X114613794Y-38318175D01*
X114625000Y-38369686D01*
X114625000Y-39020685D01*
X114683218Y-39020685D01*
X114751249Y-39010773D01*
X114856191Y-38959470D01*
X114938785Y-38876876D01*
X114976594Y-38799535D01*
X115023721Y-38747952D01*
X115091255Y-38730037D01*
X115157754Y-38751477D01*
X115168917Y-38760718D01*
X115169061Y-38760543D01*
X115173773Y-38764410D01*
X115288420Y-38841014D01*
X115288433Y-38841021D01*
X115415814Y-38893783D01*
X115415826Y-38893786D01*
X115495000Y-38909535D01*
X115495000Y-38494928D01*
X115504204Y-38500242D01*
X115580504Y-38520686D01*
X115659496Y-38520686D01*
X115735796Y-38500242D01*
X115745000Y-38494928D01*
X115745000Y-38909534D01*
X115824173Y-38893786D01*
X115824185Y-38893783D01*
X115951566Y-38841021D01*
X115951579Y-38841014D01*
X116066226Y-38764410D01*
X116163724Y-38666912D01*
X116240328Y-38552265D01*
X116240335Y-38552252D01*
X116293097Y-38424872D01*
X116293100Y-38424862D01*
X116320000Y-38289632D01*
X116320000Y-37795686D01*
X115920000Y-37795686D01*
X115920000Y-37545686D01*
X116320000Y-37545686D01*
X116320000Y-37051739D01*
X116293100Y-36916509D01*
X116293097Y-36916499D01*
X116240335Y-36789119D01*
X116240328Y-36789106D01*
X116163724Y-36674459D01*
X116066226Y-36576961D01*
X115951579Y-36500357D01*
X115951566Y-36500350D01*
X115824184Y-36447587D01*
X115824176Y-36447585D01*
X115745000Y-36431835D01*
X115745000Y-36846443D01*
X115735796Y-36841130D01*
X115659496Y-36820686D01*
X115580504Y-36820686D01*
X115504204Y-36841130D01*
X115495000Y-36846443D01*
X115495000Y-36431836D01*
X115494999Y-36431835D01*
X115415823Y-36447585D01*
X115415815Y-36447587D01*
X115288433Y-36500350D01*
X115288420Y-36500357D01*
X115173773Y-36576961D01*
X115076275Y-36674459D01*
X114999671Y-36789106D01*
X114999664Y-36789119D01*
X114944570Y-36922131D01*
X114942897Y-36921438D01*
X114909253Y-36972755D01*
X114845435Y-37001200D01*
X114776370Y-36990626D01*
X114723986Y-36944392D01*
X114721521Y-36940306D01*
X114664261Y-36841130D01*
X114650515Y-36817321D01*
X114543365Y-36710171D01*
X114476127Y-36671351D01*
X114412136Y-36634405D01*
X114338950Y-36614795D01*
X114265766Y-36595186D01*
X114114234Y-36595186D01*
X113961593Y-36636085D01*
X113891743Y-36634422D01*
X113833880Y-36595259D01*
X113806377Y-36531030D01*
X113805500Y-36516310D01*
X113805500Y-36324008D01*
X113805499Y-36323992D01*
X113800803Y-36280316D01*
X113796897Y-36262364D01*
X113789602Y-36228825D01*
X113789348Y-36227789D01*
X113787110Y-36218627D01*
X113744100Y-36137915D01*
X113698345Y-36085111D01*
X113698339Y-36085104D01*
X113680757Y-36067160D01*
X113680756Y-36067159D01*
X113680754Y-36067157D01*
X113680752Y-36067156D01*
X113680750Y-36067154D01*
X113600940Y-36022511D01*
X113600935Y-36022509D01*
X113533903Y-36002826D01*
X113533899Y-36002825D01*
X113533898Y-36002825D01*
X113476000Y-35994500D01*
X109124000Y-35994500D01*
X109123992Y-35994500D01*
X109080313Y-35999197D01*
X109028825Y-36010397D01*
X109018627Y-36012890D01*
X109018624Y-36012891D01*
X108937916Y-36055899D01*
X108937913Y-36055901D01*
X108885104Y-36101660D01*
X108867160Y-36119242D01*
X108867154Y-36119249D01*
X108822511Y-36199059D01*
X108822509Y-36199064D01*
X108802826Y-36266096D01*
X108802825Y-36266101D01*
X108802825Y-36266102D01*
X108794502Y-36323992D01*
X108794500Y-36324003D01*
X108794500Y-36516310D01*
X108774815Y-36583349D01*
X108722011Y-36629104D01*
X108652853Y-36639048D01*
X108638407Y-36636085D01*
X108535294Y-36608456D01*
X108485766Y-36595186D01*
X108334234Y-36595186D01*
X108187863Y-36634405D01*
X108056635Y-36710171D01*
X108056632Y-36710173D01*
X107949487Y-36817318D01*
X107949485Y-36817321D01*
X107878478Y-36940307D01*
X107827910Y-36988522D01*
X107759303Y-37001744D01*
X107694438Y-36975776D01*
X107656055Y-36921872D01*
X107655430Y-36922131D01*
X107654304Y-36919413D01*
X107653911Y-36918861D01*
X107653313Y-36917022D01*
X107600335Y-36789119D01*
X107600328Y-36789106D01*
X107523724Y-36674459D01*
X107426226Y-36576961D01*
X107311579Y-36500357D01*
X107311566Y-36500350D01*
X107184184Y-36447587D01*
X107184176Y-36447585D01*
X107105000Y-36431835D01*
X107105000Y-36846443D01*
X107095796Y-36841130D01*
X107019496Y-36820686D01*
X106940504Y-36820686D01*
X106864204Y-36841130D01*
X106855000Y-36846443D01*
X106855000Y-36431836D01*
X106854999Y-36431835D01*
X106775823Y-36447585D01*
X106775815Y-36447587D01*
X106648433Y-36500350D01*
X106648420Y-36500357D01*
X106533773Y-36576961D01*
X106436275Y-36674459D01*
X106359671Y-36789106D01*
X106359664Y-36789119D01*
X106306902Y-36916499D01*
X106306899Y-36916509D01*
X106280000Y-37051739D01*
X106280000Y-37545686D01*
X106680000Y-37545686D01*
X106680000Y-37795686D01*
X106280000Y-37795686D01*
X106280000Y-38289632D01*
X106279999Y-38289632D01*
X95392190Y-38289632D01*
X95424480Y-38248417D01*
X95434395Y-38237226D01*
X95637226Y-38034396D01*
X95648417Y-38024481D01*
X95874230Y-37847567D01*
X95886526Y-37839080D01*
X96132014Y-37690677D01*
X96145257Y-37683727D01*
X96406841Y-37565997D01*
X96420811Y-37560699D01*
X96694667Y-37475362D01*
X96709197Y-37471780D01*
X96991343Y-37420075D01*
X97006201Y-37418271D01*
X97296147Y-37400731D01*
X97303632Y-37400506D01*
X97365891Y-37400506D01*
X97365891Y-37400505D01*
X102849384Y-37400502D01*
X102873948Y-37400502D01*
X102874011Y-37400498D01*
X102951252Y-37400498D01*
X102996628Y-37394988D01*
X103251549Y-37364035D01*
X103545263Y-37291641D01*
X103828110Y-37184372D01*
X104095964Y-37043792D01*
X104233945Y-36948551D01*
X104241118Y-36943600D01*
X104344918Y-36871952D01*
X104344917Y-36871952D01*
X104344921Y-36871950D01*
X104527529Y-36710173D01*
X104571348Y-36671353D01*
X104571350Y-36671351D01*
X104638762Y-36595259D01*
X104771947Y-36444925D01*
X104943789Y-36195969D01*
X105084370Y-35928114D01*
X105191640Y-35645268D01*
X105264034Y-35351554D01*
X105300497Y-35051255D01*
X105300498Y-34900003D01*
X105300498Y-34834110D01*
X105300498Y-34834109D01*
X105300498Y-33904396D01*
X105300812Y-33895607D01*
X105315128Y-33695438D01*
X105317644Y-33677941D01*
X105359354Y-33486204D01*
X105364334Y-33469244D01*
X105432910Y-33285383D01*
X105440250Y-33269311D01*
X105534293Y-33097084D01*
X105543853Y-33082211D01*
X105661442Y-32925129D01*
X105673016Y-32911772D01*
X105811768Y-32773020D01*
X105825123Y-32761447D01*
X105982214Y-32643849D01*
X105997090Y-32634290D01*
X106169309Y-32540251D01*
X106185390Y-32532908D01*
X106252301Y-32507951D01*
X106259081Y-32505423D01*
X106328772Y-32500439D01*
X106390095Y-32533925D01*
X106423579Y-32595248D01*
X106418594Y-32664940D01*
X106405516Y-32690495D01*
X106359670Y-32759108D01*
X106359664Y-32759119D01*
X106306902Y-32886499D01*
X106306899Y-32886509D01*
X106280000Y-33021739D01*
X106280000Y-33365686D01*
X106680000Y-33365686D01*
X106680000Y-33615686D01*
X106280000Y-33615686D01*
X106280000Y-33959632D01*
X106279999Y-33959632D01*
X106306899Y-34094862D01*
X106306902Y-34094872D01*
X106359664Y-34222252D01*
X106359671Y-34222265D01*
X106436275Y-34336912D01*
X106533773Y-34434410D01*
X106648420Y-34511014D01*
X106648433Y-34511021D01*
X106775814Y-34563783D01*
X106775826Y-34563786D01*
X106855000Y-34579535D01*
X106855000Y-34164928D01*
X106864204Y-34170242D01*
X106940504Y-34190686D01*
X107019496Y-34190686D01*
X107095796Y-34170242D01*
X107105000Y-34164928D01*
X107105000Y-34579534D01*
X107184173Y-34563786D01*
X107184185Y-34563783D01*
X107311566Y-34511021D01*
X107311579Y-34511014D01*
X107426226Y-34434410D01*
X107523724Y-34336912D01*
X107600328Y-34222265D01*
X107600335Y-34222252D01*
X107653097Y-34094872D01*
X107653100Y-34094862D01*
X107680000Y-33959632D01*
X107680000Y-33615686D01*
X107280000Y-33615686D01*
X107280000Y-33365686D01*
X107680000Y-33365686D01*
X107680000Y-33021739D01*
X107653100Y-32886509D01*
X107653097Y-32886499D01*
X107600335Y-32759119D01*
X107600328Y-32759106D01*
X107523724Y-32644459D01*
X107491446Y-32612181D01*
X107457961Y-32550858D01*
X107462945Y-32481166D01*
X107504817Y-32425233D01*
X107570281Y-32400816D01*
X107579075Y-32400501D01*
X115020872Y-32400500D01*
X115087911Y-32420185D01*
G37*
%TD.AperFunction*%
%TD*%
M02*
