%TF.GenerationSoftware,KiCad,Pcbnew,9.0.0*%
%TF.CreationDate,2025-06-21T10:21:25-05:00*%
%TF.ProjectId,SDC_USB_Breakout,5344435f-5553-4425-9f42-7265616b6f75,rev?*%
%TF.SameCoordinates,Original*%
%TF.FileFunction,Profile,NP*%
%FSLAX46Y46*%
G04 Gerber Fmt 4.6, Leading zero omitted, Abs format (unit mm)*
G04 Created by KiCad (PCBNEW 9.0.0) date 2025-06-21 10:21:25*
%MOMM*%
%LPD*%
G01*
G04 APERTURE LIST*
%TA.AperFunction,Profile*%
%ADD10C,0.100000*%
%TD*%
G04 APERTURE END LIST*
D10*
X119799998Y-36899999D02*
G75*
G02*
X117800001Y-34900001I2J1999999D01*
G01*
X117799999Y-34900001D02*
X117799999Y-33899998D01*
X104799998Y-44900002D02*
X104799998Y-50900001D01*
X106799999Y-52899999D02*
G75*
G02*
X104800001Y-50900001I1J1999999D01*
G01*
X117799999Y-50900001D02*
X117799999Y-44900000D01*
X115800000Y-31900000D02*
X106799999Y-31900003D01*
X117799999Y-44900000D02*
G75*
G02*
X119799998Y-42899999I2000001J0D01*
G01*
X97299999Y-42900000D02*
X102799998Y-42899998D01*
X102799998Y-42899998D02*
G75*
G02*
X104800002Y-44900002I2J-2000002D01*
G01*
X119799998Y-42900000D02*
X125299999Y-42900000D01*
X117799999Y-50900001D02*
G75*
G02*
X115800000Y-52899999I-1999999J1D01*
G01*
X126299997Y-39899999D02*
G75*
G02*
X124299999Y-39899999I-999999J0D01*
G01*
X124299999Y-39899999D02*
G75*
G02*
X126299997Y-39899999I999999J0D01*
G01*
X125299999Y-36899999D02*
X119799998Y-36899999D01*
X104799999Y-33900003D02*
G75*
G02*
X106799999Y-31899999I2000001J3D01*
G01*
X115800000Y-31900000D02*
G75*
G02*
X117800000Y-33899998I0J-2000000D01*
G01*
X125299999Y-36899999D02*
G75*
G02*
X125299999Y-42900001I1J-3000001D01*
G01*
X102799998Y-36900002D02*
X97299999Y-36900006D01*
X104799998Y-34900002D02*
G75*
G02*
X102799998Y-36899998I-1999998J2D01*
G01*
X106799999Y-52899999D02*
X115800000Y-52899999D01*
X97299999Y-42900000D02*
G75*
G02*
X97299999Y-36900000I1J3000000D01*
G01*
X104799999Y-33900003D02*
X104799998Y-34900002D01*
X98299999Y-39899999D02*
G75*
G02*
X96299999Y-39899999I-1000000J0D01*
G01*
X96299999Y-39899999D02*
G75*
G02*
X98299999Y-39899999I1000000J0D01*
G01*
M02*
